PathFileType	4	(X/Y/Z)	C:\Users\Vitor Bertoli\OneDrive\Documents\Yolotestes\IMG_0212_Sports2D\IMG_0212_Sports2D_m_person00.trc
DataRate	CameraRate	NumFrames	NumMarkers	Units	OrigDataRate	OrigDataStartFrame	OrigNumFrames
112	112	9	22	m	112	350	401
Frame#	Time	Hip			RHip			RKnee			RAnkle			RBigToe			RSmallToe			RHeel			LHip			LKnee			LAnkle			LBigToe			LSmallToe			LHeel			Neck			Head			Nose			RShoulder			RElbow			RWrist			LShoulder			LElbow			LWrist		
		X1	Y1	Z1	X2	Y2	Z2	X3	Y3	Z3	X4	Y4	Z4	X5	Y5	Z5	X6	Y6	Z6	X7	Y7	Z7	X8	Y8	Z8	X9	Y9	Z9	X10	Y10	Z10	X11	Y11	Z11	X12	Y12	Z12	X13	Y13	Z13	X14	Y14	Z14	X15	Y15	Z15	X16	Y16	Z16	X17	Y17	Z17	X18	Y18	Z18	X19	Y19	Z19	X20	Y20	Z20	X21	Y21	Z21	X22	Y22	Z22
350	3.125	13.52696401078494	0.9830028978804264	0.0	13.54175981020743	0.956315257636785	0.0	13.367490057765002	0.5661750999735733	0.0	12.885195003039893	0.5695006454505768	0.0	12.767159830910506	0.4260543621672732	0.0	12.772827681169074	0.44746255511544	0.0	12.82307099556062	0.612065389127426	0.0	13.500084097294115	0.9684494947765117	0.0	13.647901261578957	0.5921754354515157	0.0	13.569947020602443	0.40330941952475374	0.0	13.408095896475498	0.34154267976191177	0.0	13.231454295796167	0.3987496487043096	0.0	13.174354099512442	0.5859039195924687	0.0	13.489991007938475	1.6048605344756157	0.0	13.514696630787968	1.8088115032724568	0.0	13.585932560335944	1.6751983603771006	0.0	13.586050895373578	1.51500803118159	0.0	13.548453596245752	1.289564502145595	0.0	13.537370153273564	1.2841386858378396	0.0	13.312909488792448	1.4958017368040597	0.0	13.130954482491983	1.2766982212571758	0.0	13.25659434713658	1.2612635568990884	0.0
351	3.133928571428571	13.569736266445304	0.9841393480976142	0.0	13.580243445723635	0.9571304137964824	0.0	13.425169080692953	0.5629233120209481	0.0	12.944206115237671	0.5979482030338681	0.0	12.819086706127429	0.46380178049078685	0.0	12.825553874765944	0.4848696542821191	0.0	12.8856023008035	0.6431279486159408	0.0	13.539205756377768	0.9699749769757957	0.0	13.656406615107144	0.5851654327971257	0.0	13.527038080676064	0.4602828293672823	0.0	13.344647693055858	0.39352136049248054	0.0	13.153365326242197	0.4501783651709991	0.0	13.13281320184844	0.6434717482761694	0.0	13.53208305466824	1.600324309589469	0.0	13.552245177013795	1.8047519239000065	0.0	13.613366885918179	1.674193899889389	0.0	13.606661341499882	1.5104511901863626	0.0	13.530204576345707	1.2878931974262493	0.0	13.500536015465721	1.2713140832274097	0.0	13.361986685241673	1.4916058180534988	0.0	13.181044814213601	1.2698233093578304	0.0	13.304009070362556	1.2607510526581647	0.0
352	3.142857142857143	13.606824261160838	0.9844179036758905	0.0	13.61229277050969	0.9574773742272754	0.0	13.478370437575238	0.5606630022033217	0.0	13.001675781898035	0.6235629525056622	0.0	12.870848347179502	0.4983255357572597	0.0	12.878262039288305	0.5192773775921803	0.0	12.946974809599745	0.6704348408685259	0.0	13.57398613382236	0.9705622699392196	0.0	13.661045794596431	0.5789637218684397	0.0	13.475300890582835	0.5151887015495367	0.0	13.286170251741177	0.44305699033765167	0.0	13.09110516071587	0.49875574489683216	0.0	13.105426782782784	0.6920703363436393	0.0	13.569713132606857	1.5951423118734516	0.0	13.585199115179735	1.8001901164125567	0.0	13.634634270212144	1.673249117125276	0.0	13.620309564117518	1.5051611898025348	0.0	13.505839917136047	1.2841838577210858	0.0	13.457062879336938	1.2591359465371144	0.0	13.407812808524938	1.487319948752529	0.0	13.227509828380857	1.262982869944029	0.0	13.347923418311332	1.2589944292082393	0.0
353	3.151785714285714	13.637963396403997	0.9836687995396274	0.0	13.637836662244148	0.9573356805190354	0.0	13.525650351876628	0.5596505255073029	0.0	13.055545815126512	0.6459757173620486	0.0	12.92044762913088	0.5288936172559593	0.0	12.928961724376697	0.5499099297872807	0.0	13.00496985588002	0.6937312599473273	0.0	13.603850570184282	0.9699734052327412	0.0	13.662977587412964	0.5736875526304072	0.0	13.420592917235831	0.5652798699140347	0.0	13.234295586625207	0.4882536719914676	0.0	13.047987912916867	0.542993890622363	0.0	13.092122477879627	0.7314764544698376	0.0	13.602174016958745	1.589447692017474	0.0	13.61301328905965	1.7952067915935737	0.0	13.65003493924878	1.6723946155740879	0.0	13.627535403046485	1.4993646153702622	0.0	13.479276266545327	1.2786780535806244	0.0	13.410455694281994	1.247958549699898	0.0	13.449437730452933	1.483097127382874	0.0	13.26934165187277	1.2564599505486993	0.0	13.387536171539184	1.2559615832179565	0.0
354	3.1607142857142856	13.663184695895534	0.9819002439414287	0.0	13.657163670679655	0.9567090158212798	0.0	13.56584013704576	0.5599371364021262	0.0	13.103893095538954	0.6649224834124184	0.0	12.965860792450364	0.5549935823026536	0.0	12.975572995097284	0.5762148447768591	0.0	13.057428257165276	0.7128697062595802	0.0	13.628546568066708	0.9681857627043814	0.0	13.663203465775146	0.5695471127556205	0.0	13.368844821377737	0.6088235546224462	0.0	13.190605625879824	0.5279751178523235	0.0	13.023116184105897	0.5818435571618251	0.0	13.090519686225777	0.7619849846422987	0.0	13.629004288925698	1.5834725214420462	0.0	13.63540536644006	1.789982054753277	0.0	13.660195964204503	1.6716564981592905	0.0	13.629369924435917	1.4934085172992426	0.0	13.454045333486224	1.2719328212157766	0.0	13.364300179525703	1.2381037451125034	0.0	13.48592045198672	1.4791046218121966	0.0	13.305618354878362	1.250490059104945	0.0	13.421991508140321	1.25181420215563	0.0
355	3.1696428571428568	13.68273124830979	0.9793570018187675	0.0	13.670900183271662	0.9556607851832972	0.0	13.598316356586539	0.5613117355250457	0.0	13.145198100024645	0.6802716963354074	0.0	13.005355183227426	0.5763384876090689	0.0	13.01627078077847	0.5978746654402812	0.0	13.102567602062884	0.7278601757719978	0.0	13.648101297510392	0.9654472528842587	0.0	13.662436360691808	0.5666424056266852	0.0	13.324163851158294	0.6448394951753833	0.0	13.156353120181421	0.5614890148473985	0.0	13.013075921715563	0.614535027390412	0.0	13.097188530205889	0.7842419740493458	0.0	13.650102398594576	1.5775745471081875	0.0	13.652456764904228	1.7848172829900082	0.0	13.665963969752559	1.6710552865396824	0.0	13.627221231121116	1.4877076201562254	0.0	13.432343366048656	1.2646999159390748	0.0	13.321734033156513	1.2298144312974133	0.0	13.516503177620883	1.4755136609050503	0.0	13.335670405979016	1.245269606552207	0.0	13.450607474725098	1.2469344516252823	0.0
356	3.1785714285714284	13.69706350679423	0.9764409335160723	0.0	13.67991569307437	0.9543528044942772	0.0	13.62313503239139	0.563367061565304	0.0	13.178621307561952	0.6920802839849998	0.0	13.037836879550587	0.5929188330161779	0.0	13.049869711018244	0.6148354671277109	0.0	13.139335761004086	0.738949299613625	0.0	13.662789855932084	0.962208374246795	0.0	13.661144370356155	0.5648593990596446	0.0	13.288217521532996	0.6730631409852212	0.0	13.131363444390665	0.5884066861751038	0.0	13.013567986546983	0.6406698719298585	0.0	13.108672447994705	0.7992934878530648	0.0	13.665771066983277	1.5721509468166788	0.0	13.664633906263784	1.7800576196215747	0.0	13.668353790710656	1.6705947259085538	0.0	13.622611132395004	1.4826240857530713	0.0	13.414987293513576	1.2577115953648395	0.0	13.284985473778887	1.2232030071760036	0.0	13.540836075658882	1.4724628701915004	0.0	13.35928129128458	1.2409383892687817	0.0	13.473139110505917	1.241857625288103	0.0
357	3.1875	13.706864052527957	0.9735363584537102	0.0	13.685177670170024	0.9529820921739799	0.0	13.640949053103151	0.5656823960502702	0.0	13.204143956606961	0.7006284133404461	0.0	13.063044148529247	0.6050505454674996	0.0	13.076042880355564	0.6273598073215096	0.0	13.16759935278944	0.7466090774444668	0.0	13.673134949224702	0.9589231694848064	0.0	13.659645189581958	0.563955387239246	0.0	13.261011597391608	0.6939019526713455	0.0	13.1144402348938	0.6088314457657806	0.0	13.020621269844856	0.6603903016586412	0.0	13.122148159571575	0.8084776598602275	0.0	13.676646660552361	1.567496800326994	0.0	13.672670473593364	1.775964872288157	0.0	13.668398478288758	1.67026371622503	0.0	13.616858857335076	1.478377561224387	0.0	13.401940270150686	1.251494174671853	0.0	13.255151482455535	1.218228164808447	0.0	13.559102321575562	1.4700196023838532	0.0	13.376765106330211	1.237544850988092	0.0	13.489861706146701	1.2370829849097806	0.0
358	3.196428571428571	13.712957135672818	0.9709031961888587	0.0	13.687628643888589	0.9516971154406448	0.0	13.65278995442291	0.5679486261775765	0.0	13.222435453528394	0.7063729202625219	0.0	13.081438004542093	0.6133143164745718	0.0	13.095220724112144	0.6359880457010791	0.0	13.18800711024698	0.7514411213204514	0.0	13.679840001516292	0.9559080830859835	0.0	13.658153674057989	0.5636797869120846	0.0	13.241711813477721	0.7082562127254551	0.0	13.104068847456565	0.6233635189876907	0.0	13.031109603755809	0.6743309019636311	0.0	13.13563538355881	0.8131805612565712	0.0	13.683554582344089	1.5637442068297835	0.0	13.677403105850786	1.7726588877973457	0.0	13.666981959415848	1.6700433193514486	0.0	13.610920263204019	1.4750374781131779	0.0	13.392757737496924	1.2463214393184778	0.0	13.232328267105492	1.2147228407845194	0.0	13.571937127509385	1.4681761165172122	0.0	13.388851129926165	1.2350426959552592	0.0	13.501453376480455	1.2329305253392095	0.0
